<?xml version="1.0" encoding="utf-8"?>
<!-- Generator: Adobe Illustrator 24.3.0, SVG Export Plug-In . SVG Version: 6.00 Build 0)  -->
<svg version="1.1" xmlns="http://www.w3.org/2000/svg" xmlns:xlink="http://www.w3.org/1999/xlink" x="0px" y="0px"
	 viewBox="0 0 249.4 136.1" style="enable-background:new 0 0 249.4 136.1;" xml:space="preserve">
<g id="Guides">
</g>
<g id="Crop_Marks">
	<g>
		<path d="M39.5,10.4l7.1,27.9l7.8-29.7c0.4-1.5,1.1-2.3,2.1-2.3h0.2c0.3,0,0.7,0.1,1.2,0.2c0.6,0.2,1,0.3,1.2,0.3
			c0.5,0.1,1.2,0.1,2,0.1c0.9,0,1.7-0.1,2.2-0.2l1.6-0.3c0.1,0,0.3-0.1,0.6-0.1c1.4,0,2.1,0.6,2.1,1.9c0,1.2-0.5,1.8-1.5,1.8
			c-0.2,0-0.6,0-1.1-0.1c-0.5-0.1-0.8-0.1-1.1-0.1c-1.6,0-2.4,1.4-2.4,4.1v3.9v4.8v4.7v8.7c0,2.8,0.8,4.1,2.3,4.1
			c0.3,0,0.6-0.1,1-0.2c0.7-0.1,1.1-0.1,1.2-0.1c1,0,1.5,0.6,1.5,1.8c0,1.3-0.7,2-2,2c0.1,0-0.2,0-0.7-0.1c-2.1-0.3-3.9-0.4-5.4-0.4
			c-1.5,0-2.8,0.1-4.2,0.4c-0.6,0.1-1.1,0.2-1.5,0.2c-1.2,0-1.8-0.6-1.8-1.8c0-1.3,0.6-1.9,1.9-1.9c0.3,0,0.5,0,0.7,0.1
			c0.7,0.1,1.1,0.1,1.2,0.1c1.1,0,1.8-1.4,2.1-4.1c0.1-0.6,0.1-2.5,0.1-5.6c0-1.2,0-3,0.1-5.3V20v-9.7c0-0.2-0.1-0.3-0.2-0.3
			c-0.1,0-0.2,0.1-0.3,0.3l-8.5,31.4c-0.4,1.4-1.2,2.1-2.6,2.1c-0.8,0-1.4-0.1-1.8-0.4c-0.4-0.3-0.7-0.8-0.9-1.7l-8.4-31.4
			c-0.1-0.2-0.2-0.3-0.3-0.3c-0.1,0-0.2,0.1-0.2,0.3l0.3,25.5c0,2.7,0.6,4,1.9,4c0.3,0,0.8,0,1.4,0h0.6c1.2,0,1.8,0.6,1.8,1.9
			c0,1.2-0.6,1.9-1.9,1.9c-0.2,0-0.5,0-1-0.1c-0.7-0.1-1.4-0.2-2.2-0.4c-0.6-0.1-1.4-0.2-2.4-0.2c-1.7,0-2.8,0.1-3.3,0.2l-1.9,0.4
			c-0.1,0-0.2,0-0.3,0.1c-0.1,0-0.2,0-0.3,0c-1.4,0-2.1-0.6-2.1-1.9c0-0.5,0.1-0.9,0.4-1.3c0.3-0.3,0.6-0.5,1-0.5
			c0.3,0,0.7,0.1,1.2,0.2c0.5,0.1,0.8,0.2,1,0.2c1.6,0,2.4-1.4,2.4-4.1V13.8c0-2.8-0.8-4.1-2.4-4.1c-0.2,0-0.6,0-1.1,0.1
			c-0.5,0.1-0.9,0.1-1.1,0.1c-1,0-1.4-0.6-1.4-1.8c0-1.3,0.7-1.9,2.1-1.9c0.1,0,0.3,0,0.6,0.1l1.6,0.2c0.8,0.1,1.6,0.2,2.3,0.2
			c0.6,0,1.4-0.1,2.4-0.2c1-0.1,1.7-0.2,2.2-0.2c1.2,0,2,0.9,2.4,2.7L39.5,10.4z"/>
		<path d="M91.5,27c0,1.4-0.1,2.2-0.2,2.6c-0.2,0.3-0.6,0.5-1.3,0.5H75.2c-0.4,0-0.7,0.1-0.8,0.2c-0.1,0.1-0.2,0.3-0.2,0.6
			c0,2.8,0.7,5,2.1,6.9c1.4,1.8,3.1,2.8,5.2,2.8c1.4,0,2.6-0.4,3.7-1.3c1.1-0.9,1.9-2,2.2-3.4l0.4-1.6c0.2-0.9,0.7-1.3,1.5-1.3
			c1.1,0,1.7,0.7,1.7,2.1c0,2.4-1,4.5-3.1,6.4c-2,1.9-4.4,2.8-6.9,2.8c-3.2,0-5.8-1.3-7.7-3.9c-1.9-2.6-2.9-6.1-2.9-10.4
			c0-4.5,1-8.1,3.1-10.9c2-2.8,4.7-4.2,8-4.2c2.9,0,5.3,1.2,7.2,3.5C90.5,20.5,91.5,23.5,91.5,27z M74.6,25.6c0,0.5,0.3,0.8,1,0.8
			h11.1c0.6,0,1-0.3,1-0.8c0-1.9-0.6-3.6-1.9-5.1c-1.2-1.4-2.7-2.1-4.4-2.1c-1.7,0-3.3,0.7-4.7,2.2C75.4,22.1,74.6,23.8,74.6,25.6z"
			/>
		<path d="M125.9,11.9c0,4.1-2.2,7.5-6.7,10.2l0.5,1c0.8,1.7,2.3,4.3,4.4,7.9l0.5,0.8l0.3-0.9l1.8-5.7C129,18.3,132,15,136,15
			c1.9,0,3.4,0.6,4.5,1.9c1.1,1.3,1.7,2.9,1.7,5c0,1.9-0.5,3.6-1.6,4.9c-1.1,1.3-2.4,2-4,2c-1.2,0-2.1-0.3-2.9-1
			c-0.7-0.7-1.1-1.6-1.1-2.8c0-1.8,0.6-2.6,1.9-2.6c1.1,0,1.7,0.6,1.7,1.8c0,0.1-0.1,0.4-0.2,0.9c0.4,0.1,0.7,0.1,0.7,0.1
			c0.6,0,1.1-0.3,1.5-0.9c0.4-0.6,0.6-1.3,0.6-2.1c0-1.1-0.3-1.9-0.9-2.6c-0.6-0.6-1.4-1-2.3-1c-1.6,0-2.9,1-3.9,3.1
			c-0.8,1.7-1.9,4.5-3.1,8.4c-0.6,2.1-1.3,3.8-1.8,5c1.3,1.8,2.4,2.9,3.3,3.5c0.9,0.6,2,0.9,3.4,0.9c0.3,0,0.7,0,1.2-0.1
			c0.5-0.1,0.9-0.1,1.2-0.1c1.3,0,1.9,0.7,1.9,2c0,1.3-0.6,1.9-1.9,1.9c0,0-0.3,0-0.7,0c-0.4,0-0.9,0-1.3,0h-2.5
			c-2.1,0-4.4-1.5-6.8-4.5c-0.8,1.1-1.5,1.9-2.1,2.4c-1.9,1.6-4.1,2.4-6.6,2.4c-2.8,0-5.1-1-6.9-3c-1.8-2-2.7-4.6-2.7-7.8
			c0-4.3,1.5-7.6,4.5-9.9c1-0.8,2-1.4,2.8-1.9l0.6-0.3c-1.6-3.5-2.5-6.3-2.5-8.5c0-2.2,0.6-4,1.9-5.3c1.3-1.4,3-2,5.1-2
			c2.2,0,3.9,0.6,5.2,1.9C125.3,7.9,125.9,9.7,125.9,11.9z M117.7,27.8c-0.7-1.4-1.4-2.7-2-3.9c-1.2,0.7-2.1,1.4-2.9,2.2
			c-1.7,1.7-2.5,3.9-2.5,6.6c0,2.1,0.5,3.7,1.6,5c1.1,1.3,2.5,1.9,4.3,1.9c2.6,0,4.7-1.3,6.3-3.8C120.5,32.6,118.9,29.9,117.7,27.8z
			 M115.6,11.9c0,1.4,0.7,3.7,2,6.9c3-1.7,4.5-3.9,4.5-6.5c0-1.2-0.3-2.1-0.9-2.8c-0.6-0.7-1.4-1.1-2.4-1.1c-1,0-1.7,0.3-2.3,1
			C115.9,10,115.6,10.8,115.6,11.9z"/>
		<path d="M169,10.4l7.1,27.9l7.8-29.7c0.4-1.5,1.1-2.3,2.1-2.3h0.2c0.3,0,0.7,0.1,1.2,0.2c0.6,0.2,1,0.3,1.2,0.3
			c0.5,0.1,1.2,0.1,2,0.1c0.9,0,1.7-0.1,2.2-0.2l1.6-0.3c0.1,0,0.3-0.1,0.6-0.1c1.4,0,2.1,0.6,2.1,1.9c0,1.2-0.5,1.8-1.5,1.8
			c-0.2,0-0.6,0-1.1-0.1c-0.5-0.1-0.8-0.1-1.1-0.1c-1.6,0-2.4,1.4-2.4,4.1v3.9v4.8v4.7v8.7c0,2.8,0.8,4.1,2.3,4.1
			c0.3,0,0.6-0.1,1-0.2c0.7-0.1,1.1-0.1,1.2-0.1c1,0,1.5,0.6,1.5,1.8c0,1.3-0.7,2-2,2c0.1,0-0.2,0-0.7-0.1c-2.1-0.3-3.9-0.4-5.4-0.4
			c-1.5,0-2.8,0.1-4.2,0.4c-0.6,0.1-1.1,0.2-1.5,0.2c-1.2,0-1.8-0.6-1.8-1.8c0-1.3,0.6-1.9,1.9-1.9c0.3,0,0.5,0,0.7,0.1
			c0.7,0.1,1.1,0.1,1.2,0.1c1.1,0,1.8-1.4,2.1-4.1c0.1-0.6,0.1-2.5,0.1-5.6c0-1.2,0-3,0.1-5.3V20v-9.7c0-0.2-0.1-0.3-0.2-0.3
			c-0.1,0-0.2,0.1-0.3,0.3l-8.5,31.4c-0.4,1.4-1.2,2.1-2.6,2.1c-0.8,0-1.4-0.1-1.8-0.4c-0.4-0.3-0.7-0.8-0.9-1.7L165,10.3
			c-0.1-0.2-0.2-0.3-0.3-0.3c-0.1,0-0.2,0.1-0.2,0.3l0.3,25.5c0,2.7,0.6,4,1.9,4c0.3,0,0.8,0,1.4,0h0.6c1.2,0,1.8,0.6,1.8,1.9
			c0,1.2-0.6,1.9-1.9,1.9c-0.2,0-0.5,0-1-0.1c-0.7-0.1-1.4-0.2-2.2-0.4c-0.6-0.1-1.4-0.2-2.4-0.2c-1.7,0-2.8,0.1-3.3,0.2l-1.9,0.4
			c-0.1,0-0.2,0-0.3,0.1c-0.1,0-0.2,0-0.3,0c-1.4,0-2.1-0.6-2.1-1.9c0-0.5,0.1-0.9,0.4-1.3c0.3-0.3,0.6-0.5,1-0.5
			c0.3,0,0.7,0.1,1.2,0.2c0.5,0.1,0.8,0.2,1,0.2c1.6,0,2.4-1.4,2.4-4.1V13.8c0-2.8-0.8-4.1-2.4-4.1c-0.2,0-0.6,0-1.1,0.1
			c-0.5,0.1-0.9,0.1-1.1,0.1c-1,0-1.4-0.6-1.4-1.8c0-1.3,0.7-1.9,2.1-1.9c0.1,0,0.3,0,0.6,0.1l1.6,0.2c0.8,0.1,1.6,0.2,2.3,0.2
			c0.6,0,1.4-0.1,2.4-0.2c1-0.1,1.7-0.2,2.2-0.2c1.2,0,2,0.9,2.4,2.7L169,10.4z"/>
		<path d="M207.2,21l5.3,18.6l5.7-18.3c0.2-0.5,0.2-0.9,0.2-1.2c0-0.6-0.4-0.9-1.1-0.9c-0.4,0-0.7,0-0.9,0.1c-0.5,0.1-0.8,0.1-1,0.1
			c-1,0-1.5-0.6-1.5-1.8c0-1.2,0.7-1.9,2-1.9c0.2,0,0.5,0,0.9,0.1l1.7,0.3c0.4,0.1,0.9,0.1,1.4,0.1c0.5,0,1.3-0.1,2.3-0.2
			c1-0.2,1.8-0.2,2.3-0.2c1.3,0,2,0.6,2,1.8c0,1.2-0.5,1.8-1.5,1.8c-0.3,0-0.5,0-0.7-0.1c-0.4-0.1-0.7-0.2-0.8-0.2
			c-0.6,0-1.2,0.9-1.8,2.8l-6.3,18.7c-1.4,4.1-2.7,7.2-3.9,9c-2.1,3.2-4.7,4.8-7.9,4.8c-1.9,0-3.5-0.6-4.7-1.7
			c-1.3-1.1-1.9-2.5-1.9-4.1c0-1.1,0.3-2.1,0.8-2.8c0.6-0.7,1.3-1.1,2.2-1.1c0.7,0,1.3,0.2,1.8,0.7c0.5,0.5,0.7,1.1,0.7,1.8
			c0,1.2-0.4,1.9-1.3,2.3c0.5,0.8,1.3,1.2,2.6,1.2c1.6,0,3.1-0.7,4.4-2.2c1.3-1.5,2-3.1,2-4.9c0-0.9-0.4-2.6-1.3-5.1l-5.1-15.3
			l-0.6-1.8c-0.5-1.7-1.1-2.5-1.8-2.5c-0.2,0-0.5,0-1,0.1c-0.5,0.1-0.8,0.1-1,0.1c-1.1,0-1.6-0.6-1.6-1.8c0-1.2,0.7-1.9,2.1-1.9
			c0.5,0,0.8,0,1.1,0.1l1.9,0.3c0,0,0.2,0,0.4,0c0.2,0,0.4,0.1,0.6,0.1c1.1,0,2.3-0.1,3.6-0.3c1-0.1,1.6-0.2,1.9-0.2
			c1.3,0,1.9,0.6,1.9,1.8s-0.6,1.8-1.8,1.8c-0.2,0-0.5,0-0.9-0.1c-0.4-0.1-0.7-0.1-0.9-0.1c-0.4,0-0.6,0.3-0.6,0.8
			C207,20.2,207.1,20.5,207.2,21z"/>
	</g>
	<g>
		<path d="M34.7,62.8l7.1,27.9L49.7,61c0.4-1.5,1.1-2.3,2.1-2.3H52c0.3,0,0.7,0.1,1.2,0.2c0.6,0.2,1,0.3,1.2,0.3
			c0.5,0.1,1.2,0.1,2,0.1c0.9,0,1.7-0.1,2.2-0.2l1.6-0.3c0.1,0,0.3-0.1,0.6-0.1c1.4,0,2.1,0.6,2.1,1.9c0,1.2-0.5,1.8-1.5,1.8
			c-0.2,0-0.6,0-1.1-0.1c-0.5-0.1-0.8-0.1-1.1-0.1c-1.6,0-2.4,1.4-2.4,4.1v3.9v4.8v4.7v8.7c0,2.8,0.8,4.1,2.3,4.1
			c0.3,0,0.6-0.1,1-0.2c0.7-0.1,1.1-0.1,1.2-0.1c1,0,1.5,0.6,1.5,1.8c0,1.3-0.7,2-2,2c0.1,0-0.2,0-0.7-0.1c-2.1-0.3-3.9-0.4-5.4-0.4
			c-1.5,0-2.8,0.1-4.2,0.4c-0.6,0.1-1.1,0.2-1.5,0.2c-1.2,0-1.8-0.6-1.8-1.8c0-1.3,0.6-1.9,1.9-1.9c0.3,0,0.5,0,0.7,0.1
			c0.7,0.1,1.1,0.1,1.2,0.1c1.1,0,1.8-1.4,2.1-4.1c0.1-0.6,0.1-2.5,0.1-5.6c0-1.2,0-3,0.1-5.3v-4.9v-9.7c0-0.2-0.1-0.3-0.2-0.3
			c-0.1,0-0.2,0.1-0.3,0.3l-8.5,31.4c-0.4,1.4-1.2,2.1-2.6,2.1c-0.8,0-1.4-0.1-1.8-0.4c-0.4-0.3-0.7-0.8-0.9-1.7l-8.4-31.4
			c-0.1-0.2-0.2-0.3-0.3-0.3c-0.1,0-0.2,0.1-0.2,0.3l0.3,25.5c0,2.7,0.6,4,1.9,4c0.3,0,0.8,0,1.4,0h0.6c1.2,0,1.8,0.6,1.8,1.9
			s-0.6,1.9-1.9,1.9c-0.2,0-0.5,0-1-0.1c-0.7-0.1-1.4-0.2-2.2-0.4c-0.6-0.1-1.4-0.2-2.4-0.2c-1.7,0-2.8,0.1-3.3,0.2l-1.9,0.4
			c-0.1,0-0.2,0-0.3,0.1c-0.1,0-0.2,0-0.3,0c-1.4,0-2.1-0.6-2.1-1.9c0-0.5,0.1-0.9,0.4-1.3c0.3-0.3,0.6-0.5,1-0.5
			c0.3,0,0.7,0.1,1.2,0.2c0.5,0.1,0.8,0.2,1,0.2c1.6,0,2.4-1.4,2.4-4.1V66.2c0-2.8-0.8-4.1-2.4-4.1c-0.2,0-0.6,0-1.1,0.1
			c-0.5,0.1-0.9,0.1-1.1,0.1c-1,0-1.4-0.6-1.4-1.8c0-1.3,0.7-1.9,2.1-1.9c0.1,0,0.3,0,0.6,0.1l1.6,0.2c0.8,0.1,1.6,0.2,2.3,0.2
			c0.6,0,1.4-0.1,2.4-0.2c1-0.1,1.7-0.2,2.2-0.2c1.2,0,2,0.9,2.4,2.7L34.7,62.8z"/>
		<path d="M78.9,96.9c-4.1,0-7.4-1.8-9.8-5.3c-2.4-3.5-3.6-8.3-3.6-14.3c0-6.1,1.2-10.9,3.6-14.3c2.4-3.5,5.7-5.2,10-5.2
			c4,0,7.3,1.7,9.7,5.1c2.4,3.4,3.6,7.9,3.6,13.7c0,6.2-1.2,11.2-3.6,14.9C86.3,95,83,96.9,78.9,96.9z M79,61.7
			c-3,0-5.3,1.4-6.9,4.1c-1.6,2.7-2.5,6.5-2.5,11.5c0,5,0.8,8.9,2.5,11.6c1.6,2.7,3.9,4.1,6.9,4.1c2.9,0,5.1-1.4,6.8-4.3
			c1.7-2.8,2.5-6.7,2.5-11.6c0-4.9-0.8-8.7-2.4-11.4C84.3,63,82,61.7,79,61.7z"/>
		<path d="M107.9,61.2L120.3,92V69.8c0-2.9,0-4.4,0-4.7c-0.3-1.9-1.1-2.9-2.3-2.9c-0.2,0-0.6,0-1.1,0.1c-0.5,0.1-0.9,0.1-1.1,0.1
			c-0.4,0-0.7-0.2-1-0.5s-0.4-0.8-0.4-1.2c0-1.3,0.7-2,2.1-2c0.3,0,0.5,0,0.6,0.1l2.1,0.3c0.9,0.1,1.8,0.2,2.6,0.2
			c0.8,0,1.9-0.1,3.2-0.3c0.5-0.1,1-0.2,1.6-0.3c0.1,0,0.2,0,0.3-0.1c0.1,0,0.2,0,0.3,0c1.3,0,2,0.6,2,1.9c0,1.2-0.6,1.8-1.9,1.8
			c-0.2,0-0.4,0-0.5,0h-0.5c-0.9,0-1.6,0.2-1.8,0.7c-0.3,0.5-0.5,1.5-0.5,3.1v3.1V75v14.7c0,2.5-0.2,4.3-0.7,5.3
			c-0.5,1-1.3,1.5-2.5,1.5c-1.5,0-2.8-1.3-3.9-3.9l-12.2-30v25.6c0,2.8,0.8,4.1,2.4,4.1c0.2,0,0.6,0,1.1-0.1
			c0.5-0.1,0.9-0.1,1.1-0.1c1,0,1.5,0.6,1.5,1.8c0,1.2-0.7,1.9-2.1,1.9c-0.1,0-0.2,0-0.3,0c-0.2,0-0.3-0.1-0.3-0.1l-1.9-0.3
			c-1-0.2-2-0.3-3-0.3c-0.8,0-1.8,0.1-3.1,0.3l-2.3,0.3c-0.1,0-0.2,0-0.3,0.1c-0.2,0-0.3,0-0.4,0c-1.3,0-2-0.6-2-1.9
			c0-1.1,0.5-1.7,1.5-1.7c0.2,0,0.6,0,1.3,0.1c0.3,0.1,0.7,0.2,1,0.2c1.6,0,2.4-1.4,2.4-4.1v-3.9v-4.8V75v-8.7
			c0-2.8-0.8-4.1-2.4-4.1c-0.2,0-0.5,0-0.9,0.1c-0.6,0.1-1,0.2-1.3,0.2c-1,0-1.5-0.6-1.5-1.8c0-1.3,0.7-1.9,2-1.9
			c0.2,0,0.4,0,0.7,0.1c1.5,0.2,2.7,0.3,3.6,0.3c0.5,0,1.2-0.1,2.1-0.2c0.9-0.1,1.6-0.2,2.1-0.2c1,0,1.6,0.4,1.9,1.2L107.9,61.2z"/>
		<path d="M140.3,76.9l13.1-13.2c0.3-0.3,0.5-0.6,0.5-0.9c0-0.4-0.3-0.6-0.9-0.6c-0.2,0-0.4,0-0.5,0.1c-1.1,0.1-1.9,0.2-2.5,0.2
			c-1.1,0-1.7-0.6-1.7-1.9c0-1.2,0.7-1.8,2-1.8c0.7,0,1.3,0,1.9,0.1l2.5,0.3c1.1,0.1,1.9,0.2,2.5,0.2c1.1,0,2.5-0.1,4.1-0.4
			c0.8-0.1,1.5-0.2,1.9-0.2c1.2,0,1.8,0.6,1.8,1.9c0,1.2-0.5,1.9-1.6,1.9c-0.1,0-0.2,0-0.5,0c-0.2,0-0.4,0-0.5,0c-0.2,0-0.4,0-0.7,0
			c-1.2,0-2.2,0.5-3.2,1.4l-8.8,8.7c-0.4,0.4-0.6,0.7-0.6,1c0,0.2,0.2,0.5,0.5,0.9l0.7,1.3l7.4,12c2,3.2,3.5,4.8,4.4,4.8
			c0.1,0,0.2,0,0.3-0.1c0.1,0,0.2,0,0.2,0c0.8-0.1,1.3-0.2,1.5-0.2c1.1,0,1.7,0.6,1.7,1.9s-0.6,1.9-1.8,1.9l-2.3-0.3
			c-1.1-0.1-2.4-0.2-3.9-0.2c-1.7,0-3.4,0.1-5.2,0.3c-1.2,0.1-1.9,0.2-2,0.2c-1.1,0-1.7-0.6-1.7-1.8c0-1.3,0.6-2,1.8-2
			c0.3,0,0.8,0,1.4,0.1c1.2,0.1,1.9,0.2,2.1,0.2c0.7,0,1.1-0.2,1.1-0.6c0-0.3-0.1-0.6-0.4-1l-8.6-13.9c-0.2-0.3-0.4-0.4-0.5-0.4
			c-0.1,0-0.3,0.1-0.6,0.4l-4.9,5.1c0,0.7,0,1.4,0,2.3c0,3.2,0,4.9,0,5.1c0.2,2.1,1,3.1,2.3,3.1c0.2,0,0.5-0.1,1-0.2
			c0.5-0.1,0.9-0.2,1.3-0.2c0.4,0,0.7,0.2,1,0.5c0.3,0.3,0.4,0.8,0.4,1.3c0,1.3-0.7,1.9-2,1.9c-0.1,0-0.2,0-0.3,0
			c-0.1,0-0.2-0.1-0.3-0.1l-2.6-0.4c-0.6-0.1-1.7-0.2-3-0.2c-1,0-1.8,0.1-2.5,0.2l-2.5,0.4c-0.1,0-0.2,0-0.3,0.1c-0.1,0-0.2,0-0.3,0
			c-1.4,0-2.1-0.7-2.1-2c0-1.2,0.5-1.8,1.4-1.8c0.3,0,0.7,0.1,1.3,0.2c0.4,0.1,0.7,0.1,1,0.1c1.5,0,2.3-1.4,2.3-4.1
			c0,0.1,0-1.2,0-3.9v-4.8v-4.6v-4.9l0-3.9c0-2.8-0.8-4.1-2.3-4.1c-0.3,0-0.6,0-1,0.1c-0.6,0.1-1,0.1-1.2,0.1c-1,0-1.5-0.6-1.5-1.8
			c0-1.3,0.7-1.9,2.1-1.9c0.2,0,0.4,0,0.6,0.1l2.2,0.4c1,0.2,1.8,0.2,2.5,0.2c0.8,0,2.1-0.1,3.7-0.3c1.7-0.2,2.6-0.3,2.9-0.3
			c1.3,0,1.9,0.6,1.9,1.9c0,0.5-0.1,0.9-0.4,1.3c-0.3,0.3-0.6,0.5-1,0.5c-0.3,0-0.7-0.1-1.2-0.2c-0.2-0.1-0.5-0.1-1-0.1
			c-1.1,0-1.7,0.5-2,1.3c-0.3,0.9-0.4,3.1-0.4,6.6V76.9z"/>
		<path d="M172.7,66.2c0-2.7-0.8-4.1-2.4-4.1c-0.4,0-0.8,0-1,0.1c-0.5,0.1-0.9,0.2-1.3,0.2c-0.4,0-0.7-0.2-1-0.5s-0.4-0.8-0.4-1.3
			c0-1.3,0.6-1.9,1.9-1.9c0,0,0.3,0,0.7,0.1c4.6,0.4,6.8,0.6,6.5,0.6h0.5l11.1-0.4c0.2,0,1-0.1,2.4-0.2c0.5,0,0.9-0.1,1.3-0.1
			c1.6,0,2.4,0.8,2.4,2.5c0,0.3,0,1.2-0.1,2.8c-0.1,1.2-0.1,2.3-0.1,3.2c0,1.3,0,2.2,0.1,2.7c0.1,1.1,0.2,1.9,0.2,2.4
			c0,1.4-0.5,2.1-1.6,2.1c-1.1,0-1.6-1-1.6-2.9v-2.9c0-3.1-0.5-4.9-1.6-5.5c-0.8-0.4-2.9-0.6-6.2-0.6c-2.2,0-3.5,0.1-3.9,0.2
			c-1.3,0.4-2,1.5-2,3.3v2.5c0,0.3,0,0.7,0,1.2c0,0.5,0,0.9,0,1.1v0.7c0,1.5,0.3,2.3,0.8,2.5c0.2,0.1,0.6,0.1,1.1,0.1h1.9
			c1.9,0,2.9-0.8,2.9-2.4c0-0.4,0-1-0.1-1.7c-0.1-0.7-0.1-1.3-0.1-1.9c0-1.5,0.5-2.2,1.6-2.2s1.6,0.8,1.6,2.4c0,0.3-0.1,1.4-0.3,3.4
			c-0.2,1.7-0.3,3.2-0.3,4.5c0,0.7,0.1,2,0.2,3.9c0,0.3,0.1,0.9,0.2,1.9c0.1,0.8,0.1,1.5,0.1,1.9c0,1.3-0.6,2-1.7,2
			c-1.1,0-1.6-0.8-1.6-2.3c0-0.4,0-1,0.1-1.8c0.1-0.8,0.1-1.4,0.1-1.8c0-1.6-0.9-2.4-2.6-2.4h-2.1c-0.9,0-1.4,0.2-1.6,0.6
			c-0.2,0.4-0.3,1.2-0.3,2.4v3.4c0,0.6,0,1.4,0,2.4c0,1.2,0,2,0,2.4c0,1.5,0.3,2.4,0.7,2.8c0.3,0.3,1.1,0.4,2.4,0.4h6.3
			c1.8,0,3.1-0.3,3.8-1c0.7-0.6,1-1.8,1-3.6c0-0.6,0-1.4-0.1-2.5c0-1.1-0.1-1.9-0.1-2.5c0-1.7,0.5-2.5,1.6-2.5
			c1.2,0,1.7,0.8,1.7,2.5c0,0.7,0,1.7-0.1,3c0,1.4-0.1,2.4-0.1,3c0,0.5,0,1.3,0.1,2.3c0,1,0.1,1.8,0.1,2.3c0,1.7-0.7,2.6-2.1,2.6
			c-0.3,0-0.9,0-1.6-0.1c-0.4,0-1.1-0.1-2-0.1c0.2,0-1,0-3.6-0.1c-2.6-0.1-4.9-0.1-6.8-0.1c-2.9,0-5.7,0.1-8.5,0.3
			c-0.1,0-0.3,0-0.4,0.1c-0.2,0-0.2,0-0.3,0c-1.3,0-1.9-0.7-1.9-2c0-1.2,0.5-1.8,1.4-1.8c0.2,0,0.6,0,1.3,0.1c0.3,0.1,0.7,0.2,1,0.2
			c1.6,0,2.4-1.4,2.4-4.1V66.2z"/>
		<path d="M212,84.7c0-0.1,0-0.5,0-1c0-0.6,0-1.1,0-1.5l-9-17c-0.6-1.1-1-1.8-1.1-1.9c-0.5-0.6-1-0.8-1.7-0.8
			c-0.4,0-0.6,0.1-0.8,0.2c-0.1,0-0.2,0-0.4,0c-0.2,0-0.4,0-0.5,0c-1.4,0-2.1-0.6-2.1-1.9c0-1.3,0.6-2,1.9-2c0.5,0,1.1,0.1,1.9,0.2
			c1.5,0.3,2.9,0.4,4.2,0.4c1,0,2.4-0.2,4.3-0.5c0.6-0.1,1.2-0.2,1.7-0.2c1.3,0,1.9,0.6,1.9,1.9c0,1.2-0.8,1.8-2.3,1.8h-0.5h-1.2
			h-0.9c-0.4,0-0.6,0.1-0.6,0.4c0,0.1,0,0.2,0,0.3c0,0.1,0.1,0.2,0.2,0.5l7.1,14.3l7.2-14.3c0.2-0.3,0.2-0.6,0.2-0.9
			c0-0.3-0.2-0.5-0.6-0.5h-0.1l-0.8,0.2l-1.2,0.1c-0.5,0.1-0.9,0.1-1.2,0.1c-1.3,0-1.9-0.7-1.9-2c0-1.3,0.6-2,1.9-2
			c0.5,0,1,0.1,1.7,0.2c1.7,0.3,3.2,0.4,4.5,0.4c1.3,0,2.8-0.1,4.4-0.4c0.6-0.1,1.1-0.2,1.6-0.2c1.2,0,1.8,0.6,1.8,1.9
			c0,1.2-0.6,1.8-1.7,1.8c-0.5,0-0.8,0-1.1-0.1c-0.5-0.1-0.8-0.1-1-0.1c-0.8,0-1.5,0.4-1.9,1.3l-0.7,1.3l-9.1,17v2.3
			c0,3.7,0.1,6.1,0.4,7c0.3,0.9,0.9,1.4,2,1.4c0.2,0,0.6,0,1.1-0.1c0.5-0.1,0.9-0.1,1.1-0.1c1,0,1.4,0.6,1.4,1.8c0,1.3-0.7,2-2.1,2
			c0,0-0.1,0-0.3,0c-0.1,0-0.2-0.1-0.3-0.1l-2.5-0.4c-1-0.1-1.9-0.2-2.8-0.2c-1,0-1.9,0.1-2.8,0.2l-2.4,0.4c-0.1,0-0.2,0-0.3,0.1
			c-0.2,0-0.3,0-0.3,0c-1.4,0-2.1-0.6-2.1-1.9c0-1.2,0.5-1.8,1.5-1.8c0.2,0,0.6,0,1.1,0.1c0.5,0.1,0.8,0.1,1.1,0.1
			c1.3,0,2.1-1,2.4-2.9C212,89.2,212,87.6,212,84.7z"/>
	</g>
	<g>
		<path d="M26.1,113.7c-0.1,1.2-0.2,2.5-0.2,4.1c0.4-0.6,0.9-1,1.4-1.2c0.5-0.2,1-0.4,1.7-0.4c1.4,0,2.5,0.5,3.3,1.5
			c0.8,1,1.2,2.3,1.2,3.9c0,1.8-0.4,3.2-1.3,4.3c-0.9,1.1-2.1,1.6-3.5,1.6c-1.4,0-2.5-0.5-3.1-1.6c0.1,0.4,0.1,0.6,0.1,0.7
			c0,0.5-0.2,0.8-0.7,0.8c-0.5,0-0.7-0.3-0.7-1c0-0.2,0-0.3,0-0.4c0-0.3,0-0.7,0-1l0.1-1.6V121v-5.6c0-0.5-0.1-0.9-0.2-1.1
			c-0.1-0.2-0.2-0.3-0.5-0.3c0,0-0.2,0-0.5,0.1c-0.2,0-0.3,0-0.4,0c-0.5,0-0.7-0.2-0.7-0.7c0-0.5,0.3-0.7,0.8-0.7c0.2,0,0.3,0,0.4,0
			l0.5,0.1c0.2,0,0.4,0,0.5,0c0.2,0,0.4,0,0.7-0.1c0.3,0,0.5-0.1,0.6-0.1c0.3,0,0.5,0.2,0.5,0.6V113.7z M26,119.8
			c-0.1,0.4-0.1,1.1-0.1,1.9c0,1.4,0.1,2.3,0.3,2.9c0.4,1,1.3,1.5,2.5,1.5c1,0,1.7-0.4,2.3-1.1s0.9-1.8,0.9-3.1
			c0-1.3-0.3-2.3-0.8-3.1c-0.5-0.7-1.3-1.1-2.2-1.1c-0.7,0-1.3,0.2-1.8,0.6C26.5,118.6,26.2,119.2,26,119.8z"/>
		<path d="M38.5,118.6l2.4,7.1l2.6-7c0.1-0.2,0.1-0.4,0.1-0.5c0-0.2-0.2-0.4-0.5-0.4c-0.2,0-0.3,0-0.4,0c-0.2,0-0.4,0-0.4,0
			c-0.5,0-0.7-0.2-0.7-0.7c0-0.5,0.3-0.7,0.9-0.7c0.1,0,0.2,0,0.4,0l0.8,0.1c0.2,0,0.4,0,0.6,0c0.2,0,0.6,0,1-0.1s0.8-0.1,1.1-0.1
			c0.6,0,0.9,0.2,0.9,0.7c0,0.5-0.2,0.7-0.7,0.7c-0.1,0-0.2,0-0.3,0c-0.2,0-0.3-0.1-0.4-0.1c-0.3,0-0.5,0.4-0.8,1.1l-2.9,7.1
			c-0.6,1.6-1.2,2.7-1.8,3.4c-1,1.2-2.1,1.8-3.6,1.8c-0.9,0-1.6-0.2-2.2-0.7c-0.6-0.4-0.9-1-0.9-1.6c0-0.4,0.1-0.8,0.4-1.1
			s0.6-0.4,1-0.4c0.3,0,0.6,0.1,0.8,0.3s0.3,0.4,0.3,0.7c0,0.4-0.2,0.7-0.6,0.9c0.2,0.3,0.6,0.5,1.2,0.5c0.7,0,1.4-0.3,2-0.8
			s0.9-1.2,0.9-1.9c0-0.3-0.2-1-0.6-2l-2.3-5.8l-0.3-0.7c-0.2-0.6-0.5-0.9-0.8-0.9c-0.1,0-0.2,0-0.5,0.1c-0.2,0-0.4,0.1-0.4,0.1
			c-0.5,0-0.7-0.2-0.7-0.7c0-0.5,0.3-0.7,1-0.7c0.2,0,0.4,0,0.5,0l0.8,0.1c0,0,0.1,0,0.2,0c0.1,0,0.2,0,0.3,0c0.5,0,1,0,1.6-0.1
			c0.4,0,0.7-0.1,0.9-0.1c0.6,0,0.9,0.2,0.9,0.7S40,118,39.5,118c-0.1,0-0.2,0-0.4,0c-0.2,0-0.3,0-0.4,0c-0.2,0-0.3,0.1-0.3,0.3
			C38.4,118.3,38.4,118.4,38.5,118.6z"/>
		<path d="M65,116.4c0,1.4-0.8,2.4-2.4,3c0.6,0.2,1.1,0.4,1.4,0.6c1.1,0.7,1.7,1.6,1.7,3c0,1.3-0.5,2.3-1.5,3.1
			c-1,0.8-2.3,1.1-4,1.1c-0.6,0-1.4,0-2.3-0.1c-0.9-0.1-1.6-0.1-2-0.1c-0.4,0-0.7,0-1.1,0.1l-1,0.1c0,0-0.1,0-0.1,0
			c-0.1,0-0.1,0-0.1,0c-0.6,0-0.9-0.3-0.9-0.8c0-0.4,0.2-0.7,0.7-0.7c0.1,0,0.3,0,0.6,0.1c0.2,0,0.3,0,0.4,0c0.7,0,1.1-0.5,1.1-1.6
			v-8.4c0-1.1-0.4-1.6-1.1-1.6c-0.1,0-0.3,0-0.4,0c-0.3,0-0.4,0.1-0.6,0.1c-0.4,0-0.7-0.2-0.7-0.7c0-0.5,0.3-0.7,1-0.7h0.3l1,0.1
			c0.3,0,0.7,0.1,1.2,0.1c0.5,0,1.3,0,2.3-0.1c0.7-0.1,1.4-0.1,2.1-0.1c1.4,0,2.5,0.3,3.3,0.9C64.6,114.5,65,115.3,65,116.4z
			 M56.9,117.3c0,0.7,0.1,1.2,0.2,1.4c0.1,0.2,0.5,0.3,1.1,0.3h1.2c2.5,0,3.7-0.8,3.7-2.4c0-1.5-1-2.2-3.1-2.2
			c-1.4,0-2.3,0.1-2.6,0.3c-0.3,0.2-0.5,0.7-0.5,1.4V117.3z M56.9,121.5v2.3c0,0.9,0.2,1.5,0.5,1.7c0.3,0.2,1.1,0.3,2.5,0.3
			c2.6,0,3.9-1,3.9-2.9c0-1.8-1.3-2.7-3.8-2.7h-1.7c-0.8,0-1.2,0.2-1.3,0.5C57,120.9,56.9,121.2,56.9,121.5z"/>
		<path d="M69.6,127.4c-0.4,0-0.7-0.1-0.9-0.4c-0.3-0.3-0.4-0.6-0.4-0.9s0.1-0.7,0.4-0.9c0.3-0.3,0.6-0.4,0.9-0.4
			c0.4,0,0.7,0.1,0.9,0.4c0.3,0.3,0.4,0.6,0.4,0.9s-0.1,0.7-0.4,0.9C70.3,127.3,70,127.4,69.6,127.4z"/>
		<path d="M85.3,116.4c0,1.4-0.8,2.4-2.4,3c0.6,0.2,1.1,0.4,1.4,0.6c1.1,0.7,1.7,1.6,1.7,3c0,1.3-0.5,2.3-1.5,3.1
			c-1,0.8-2.3,1.1-4,1.1c-0.6,0-1.4,0-2.3-0.1c-0.9-0.1-1.6-0.1-2-0.1c-0.4,0-0.7,0-1.1,0.1l-1,0.1c0,0-0.1,0-0.1,0
			c-0.1,0-0.1,0-0.1,0c-0.6,0-0.9-0.3-0.9-0.8c0-0.4,0.2-0.7,0.7-0.7c0.1,0,0.3,0,0.6,0.1c0.2,0,0.3,0,0.4,0c0.7,0,1.1-0.5,1.1-1.6
			v-8.4c0-1.1-0.4-1.6-1.1-1.6c-0.1,0-0.3,0-0.4,0c-0.3,0-0.4,0.1-0.6,0.1c-0.4,0-0.7-0.2-0.7-0.7c0-0.5,0.3-0.7,1-0.7h0.3l1,0.1
			c0.3,0,0.7,0.1,1.2,0.1c0.5,0,1.3,0,2.3-0.1c0.7-0.1,1.4-0.1,2.1-0.1c1.4,0,2.5,0.3,3.3,0.9C84.9,114.5,85.3,115.3,85.3,116.4z
			 M77.2,117.3c0,0.7,0.1,1.2,0.2,1.4c0.1,0.2,0.5,0.3,1.1,0.3h1.2c2.5,0,3.7-0.8,3.7-2.4c0-1.5-1-2.2-3.1-2.2
			c-1.4,0-2.3,0.1-2.6,0.3c-0.3,0.2-0.5,0.7-0.5,1.4V117.3z M77.2,121.5v2.3c0,0.9,0.2,1.5,0.5,1.7c0.3,0.2,1.1,0.3,2.5,0.3
			c2.6,0,3.9-1,3.9-2.9c0-1.8-1.3-2.7-3.8-2.7h-1.7c-0.8,0-1.2,0.2-1.3,0.5C77.2,120.9,77.2,121.2,77.2,121.5z"/>
		<path d="M89.9,127.4c-0.4,0-0.7-0.1-0.9-0.4c-0.3-0.3-0.4-0.6-0.4-0.9s0.1-0.7,0.4-0.9c0.3-0.3,0.6-0.4,0.9-0.4
			c0.4,0,0.7,0.1,0.9,0.4c0.3,0.3,0.4,0.6,0.4,0.9s-0.1,0.7-0.4,0.9C90.5,127.3,90.2,127.4,89.9,127.4z"/>
		<path d="M104,119.3c-0.4,0.2-0.9,0.4-1.6,0.5c0.8,0.2,1.4,0.5,1.7,0.9c0.3,0.5,0.5,1.2,0.5,2.3v1c0,0.1,0,0.1,0,0.3
			c0,1,0.3,1.5,1,1.5c0.7,0,1-0.6,1-1.8v-0.6v-0.5v-0.3c0-0.4,0-0.7,0.1-0.8c0.1-0.2,0.3-0.4,0.7-0.4c0.5,0,0.8,0.3,0.8,0.9
			c0,0,0,0.2,0,0.5v0.4c0,0.3,0,0.5,0,0.6v0.5c0,0.1,0,0.2,0,0.4c0,0.8-0.2,1.4-0.7,1.9c-0.5,0.5-1.1,0.7-1.9,0.7
			c-1.7,0-2.5-0.8-2.5-2.5v-0.6v-0.7v-0.5c0-0.9-0.2-1.6-0.5-1.9c-0.4-0.3-1.1-0.5-2.2-0.5h-1.9c-0.4,0-0.7,0.3-0.7,0.8v1.6
			c0,1,0,1.6,0,1.8c0.1,0.7,0.5,1.1,1,1.1c0.2,0,0.3,0,0.4,0c0.2,0,0.4,0,0.5,0c0.4,0,0.7,0.2,0.7,0.7c0,0.5-0.3,0.7-0.9,0.7l-0.3,0
			L98,127c-0.4-0.1-0.8-0.1-1.2-0.1c-0.4,0-0.9,0-1.5,0.1l-1,0.1c-0.2,0-0.3,0-0.3,0c-0.6,0-0.9-0.3-0.9-0.8c0-0.4,0.2-0.7,0.7-0.7
			c0.1,0,0.3,0,0.6,0c0.2,0,0.3,0.1,0.4,0.1c0.7,0,1.1-0.5,1.1-1.6v-8.4c0-1.1-0.4-1.6-1.1-1.6c-0.1,0-0.3,0-0.5,0.1
			c-0.2,0-0.4,0.1-0.5,0.1c-0.2,0-0.3-0.1-0.5-0.2c-0.1-0.1-0.2-0.3-0.2-0.5c0-0.5,0.3-0.7,0.9-0.7c0.1,0,0.2,0,0.3,0l1.1,0.1
			c0.3,0,0.6,0,1,0c0.4,0,0.9,0,1.4,0l1.6-0.1c0.5,0,1,0,1.5,0c3.1,0,4.6,1.2,4.6,3.5C105.6,117.9,105.1,118.8,104,119.3z
			 M98.2,119.2h2c1.2,0,2.1-0.2,2.6-0.5c0.7-0.4,1.1-1.1,1.1-2c0-1.6-1.1-2.4-3.3-2.4c-1.2,0-2,0.1-2.4,0.3c-0.4,0.2-0.6,0.5-0.6,1
			v0.7v2.4c0,0.2,0,0.4,0.1,0.5S98,119.2,98.2,119.2z"/>
		<path d="M114,127.4c-1.5,0-2.6-0.5-3.5-1.5c-0.9-1-1.3-2.4-1.3-4.1s0.4-3.1,1.3-4.1s2.1-1.5,3.6-1.5c1.5,0,2.7,0.5,3.6,1.5
			c0.9,1,1.3,2.3,1.3,4.1s-0.5,3.1-1.4,4.1C116.7,126.9,115.5,127.4,114,127.4z M114.1,117.6c-1,0-1.8,0.3-2.3,1s-0.9,1.7-0.9,2.9
			v0.3c0,1.3,0.3,2.3,0.8,3.1c0.6,0.7,1.3,1.1,2.3,1.1c1,0,1.8-0.4,2.4-1.1c0.6-0.7,0.9-1.8,0.9-3.1
			C117.3,119,116.3,117.6,114.1,117.6z"/>
		<path d="M125.4,116.2c1.4,0,2.4,0.5,3.1,1.6v-2.1c0-0.6,0-0.9,0-1c-0.1-0.4-0.3-0.7-0.6-0.7c-0.1,0-0.3,0-0.5,0.1
			s-0.4,0.1-0.5,0.1c-0.5,0-0.8-0.2-0.8-0.7c0-0.5,0.4-0.7,1.1-0.7c0.1,0,0.3,0,0.6,0c0.4,0,0.7,0.1,0.7,0.1c0.1,0,0.3,0,0.5-0.1
			c0.2,0,0.4-0.1,0.5-0.1c0.4,0,0.6,0.3,0.6,0.8v0.2c0,0,0,0.4,0,1.1c0,0.1,0,0.6-0.1,1.6c0,0.7,0,1.2,0,1.6v2.1v3.5
			c0,0.9,0.1,1.5,0.1,1.7c0.1,0.2,0.2,0.3,0.5,0.3c0.2,0,0.3,0,0.4,0c0.2,0,0.4,0,0.5,0c0.5,0,0.8,0.2,0.8,0.7
			c0,0.5-0.3,0.7-0.9,0.7c-0.1,0-0.4,0-0.6-0.1c-0.3,0-0.5-0.1-0.6-0.1c0,0-0.2,0-0.5,0c-0.2,0-0.3,0.1-0.4,0.1
			c-0.4,0-0.6-0.3-0.6-0.8v-0.1V126c-0.7,1-1.8,1.5-3.2,1.5c-1.4,0-2.6-0.5-3.4-1.6c-0.9-1-1.3-2.4-1.3-4.1c0-1.7,0.4-3,1.3-4.1
			C122.8,116.7,123.9,116.2,125.4,116.2z M128.4,123.6c0.1-0.5,0.1-1.1,0.1-1.8c0-0.9,0-1.6-0.1-1.9c-0.1-0.7-0.4-1.2-0.9-1.6
			c-0.6-0.5-1.2-0.7-1.9-0.7c-1,0-1.8,0.4-2.3,1.1c-0.6,0.7-0.8,1.8-0.8,3c0,1.3,0.3,2.4,0.9,3.1s1.4,1.1,2.4,1.1
			c0.8,0,1.4-0.2,1.9-0.7C128,125,128.3,124.4,128.4,123.6z"/>
		<path d="M136.4,117.2v0.6c0.7-1,1.7-1.5,2.9-1.5c1,0,1.8,0.3,2.4,0.8s0.9,1.3,0.9,2.1c0,0.6-0.2,1.1-0.5,1.5
			c-0.3,0.4-0.7,0.6-1.2,0.6c-0.3,0-0.6-0.1-0.8-0.3c-0.2-0.2-0.3-0.4-0.3-0.7c0-0.2,0.1-0.4,0.3-0.6s0.4-0.3,0.6-0.3
			c0,0,0.1,0,0.3,0.1c0.1-0.2,0.1-0.3,0.1-0.5c0-0.4-0.2-0.7-0.5-1c-0.4-0.3-0.8-0.4-1.3-0.4c-1.1,0-1.8,0.5-2.2,1.5
			c-0.2,0.6-0.3,1.5-0.3,2.7v1.4c0,0.9,0,1.5,0,1.6c0.1,0.8,0.3,1.2,0.7,1.2c0.2,0,0.4,0,0.6-0.1c0.2,0,0.3-0.1,0.4-0.1
			c0.4,0,0.7,0.2,0.7,0.7c0,0.5-0.3,0.7-0.9,0.7H138c-0.2,0-0.5,0-1-0.1c-0.4,0-0.7-0.1-1-0.1c-0.6,0-1,0-1.3,0l-1.2,0.1
			c-0.6,0-0.9-0.2-0.9-0.7c0-0.4,0.3-0.7,0.8-0.7c0.1,0,0.2,0,0.3,0l0.3,0.1c0.1,0,0.2,0,0.3,0c0.4,0,0.5-0.3,0.6-1v-1.1l-0.1-4.8
			c0-0.8-0.3-1.2-0.6-1.2c-0.1,0-0.3,0-0.5,0.1c-0.2,0-0.4,0.1-0.5,0.1c-0.5,0-0.7-0.2-0.7-0.7c0-0.5,0.3-0.7,0.9-0.7
			c0.1,0,0.4,0,0.6,0.1c0.3,0,0.5,0.1,0.6,0.1c0.1,0,0.3,0,0.5-0.1c0.1,0,0.2-0.1,0.4-0.1C136.3,116.6,136.4,116.8,136.4,117.2z"/>
		<path d="M147,121v2.7c0,0.7,0,1.1,0,1.2c0.1,0.6,0.3,0.9,0.6,0.9c0.1,0,0.2,0,0.5-0.1c0.1,0,0.2,0,0.3,0c0.5,0,0.8,0.2,0.8,0.7
			c0,0.2-0.1,0.4-0.3,0.5c-0.2,0.1-0.4,0.2-0.7,0.2c-0.2,0-0.6,0-1-0.1c-0.5-0.1-0.8-0.1-1-0.1c-0.4,0-0.8,0-1.2,0.1
			c-0.5,0.1-0.9,0.1-1.1,0.1c-0.6,0-0.8-0.2-0.8-0.7c0-0.5,0.2-0.7,0.7-0.7c0.1,0,0.3,0,0.5,0.1c0.2,0,0.4,0.1,0.5,0.1
			c0.3,0,0.5-0.4,0.6-1.3c0-0.1,0-0.7,0-1.8V121c0-1.2,0-1.8,0-1.8c-0.1-0.9-0.3-1.3-0.6-1.3c-0.1,0-0.3,0-0.5,0.1
			c-0.2,0-0.4,0.1-0.5,0.1c-0.5,0-0.8-0.2-0.8-0.7c0-0.5,0.3-0.7,0.9-0.7c0.3,0,0.5,0,0.6,0c0.4,0.1,0.7,0.1,0.9,0.1
			c0.1,0,0.3,0,0.5-0.1c0.2,0,0.4-0.1,0.5-0.1c0.4,0,0.6,0.3,0.6,0.8c0,0.1,0,0.1,0,0.3c0,0.1,0,0.2,0,0.3c0,0.1,0,0.5,0,1.3
			C147,119.8,147,120.4,147,121z M145.9,115.5c-0.3,0-0.6-0.1-0.8-0.3s-0.3-0.5-0.3-0.8c0-0.3,0.1-0.6,0.3-0.8
			c0.2-0.2,0.5-0.3,0.8-0.3c0.3,0,0.6,0.1,0.8,0.3c0.2,0.2,0.3,0.5,0.3,0.8c0,0.3-0.1,0.6-0.3,0.8S146.2,115.5,145.9,115.5z"/>
		<path d="M155.1,116.2c0.4,0,0.8,0.1,1.2,0.2c0.1-1.4,0.9-2.1,2.4-2.1c0.6,0,1.2,0.2,1.6,0.5s0.7,0.8,0.7,1.3
			c0,0.3-0.1,0.6-0.3,0.9c-0.2,0.2-0.5,0.4-0.8,0.4c-0.2,0-0.4-0.1-0.6-0.2c-0.2-0.2-0.3-0.3-0.3-0.5c0-0.2,0.2-0.5,0.5-0.7
			c-0.2-0.3-0.5-0.4-0.9-0.4c-0.7,0-1.1,0.5-1.1,1.4c1.1,0.7,1.6,1.7,1.6,2.9c0,1-0.4,1.8-1.1,2.4c-0.7,0.6-1.6,1-2.7,1
			c-0.8,0-1.6-0.2-2.4-0.5c-0.2-0.1-0.4-0.1-0.6-0.1c-0.2,0-0.4,0.1-0.5,0.3c-0.2,0.2-0.2,0.4-0.2,0.6c0,0.7,0.7,1.1,2.2,1.1h0.1
			c0.1,0,0.2,0,0.4,0s0.2,0,0.3,0c1.3,0,2.4,0.1,3.2,0.4c0.8,0.2,1.4,0.6,1.8,1.1c0.4,0.5,0.7,1.1,0.7,1.7c0,1-0.5,1.8-1.4,2.4
			c-0.9,0.6-2.2,0.9-3.8,0.9s-2.9-0.3-3.8-0.8s-1.4-1.3-1.4-2.3c0-1.1,0.6-1.9,1.9-2.4c-1.1-0.4-1.7-1.1-1.7-2c0-1,0.6-1.7,1.7-2
			c-0.4-0.5-0.5-1.1-0.5-1.7c0-1,0.4-1.7,1.1-2.4C153,116.5,154,116.2,155.1,116.2z M155.1,125.8c-1.1,0-2,0.2-2.6,0.5s-1,0.8-1,1.4
			c0,0.6,0.3,1,0.9,1.4s1.5,0.5,2.5,0.5c1.1,0,2-0.2,2.7-0.5c0.7-0.3,1-0.8,1-1.3c0-0.6-0.3-1-0.9-1.4
			C157.1,125.9,156.3,125.8,155.1,125.8z M155.1,117.6c-0.6,0-1.1,0.2-1.6,0.5c-0.4,0.4-0.7,0.8-0.7,1.4v0.1c0,0.6,0.2,1.1,0.6,1.5
			c0.4,0.4,1,0.6,1.6,0.6c0.7,0,1.3-0.2,1.7-0.6c0.4-0.4,0.7-0.9,0.7-1.4c0-0.6-0.2-1.1-0.7-1.5
			C156.4,117.8,155.8,117.6,155.1,117.6z"/>
		<path d="M170.1,126.6v-0.7c-0.7,1-1.8,1.5-3.3,1.5c-1.7,0-2.8-0.5-3.4-1.5c-0.3-0.4-0.4-1-0.5-1.6c0-0.3,0-0.9,0-1.8v-1.7
			c0-1.9-0.2-2.9-0.6-2.9c-0.1,0-0.2,0-0.4,0c-0.2,0-0.3,0-0.4,0c-0.5,0-0.7-0.2-0.7-0.7c0-0.4,0.3-0.7,0.9-0.7c0.1,0,0.3,0,0.6,0.1
			c0.3,0,0.5,0.1,0.6,0.1c0.1,0,0.3,0,0.7-0.1c0.2,0,0.3,0,0.4,0c0.4,0,0.7,0.3,0.7,0.8v0.4v1.4l-0.1,1.6v1.4c0,1.2,0.1,2.1,0.3,2.6
			c0.3,0.9,1.1,1.3,2.3,1.3c0.6,0,1.1-0.1,1.6-0.4s0.8-0.6,1-1.1c0.2-0.5,0.3-1.6,0.3-3.1v-1.2c0-0.8,0-1.3,0-1.4
			c-0.1-0.7-0.3-1-0.5-1c-0.2,0-0.3,0-0.4,0h-0.3c-0.5,0-0.7-0.2-0.7-0.6c0-0.5,0.3-0.7,0.8-0.7c0.1,0,0.3,0,0.6,0
			c0.3,0,0.5,0,0.6,0c0.1,0,0.3,0,0.5,0c0.2,0,0.4,0,0.5,0c0.4,0,0.6,0.2,0.6,0.7c0,0.2,0,0.4,0,0.5c-0.1,0.5-0.1,1.3-0.1,2.4v3.2
			c0,0.9,0,1.3,0,1.4c0.1,0.7,0.3,1.1,0.6,1.1c0.1,0,0.2,0,0.4-0.1c0.2,0,0.3-0.1,0.4-0.1c0.5,0,0.7,0.2,0.7,0.7
			c0,0.5-0.3,0.7-0.9,0.7c-0.1,0-0.3,0-0.5,0c-0.4,0-0.6-0.1-0.7-0.1c0,0-0.2,0-0.4,0c-0.2,0-0.3,0.1-0.4,0.1
			C170.3,127.2,170.1,127,170.1,126.6z"/>
		<path d="M184.1,120.9c0,0.5,0,0.9-0.1,1c-0.1,0.1-0.3,0.2-0.6,0.2h-6.7c-0.2,0-0.3,0-0.4,0.1c-0.1,0-0.1,0.1-0.1,0.2
			c0,1.1,0.3,1.9,0.9,2.6c0.6,0.7,1.4,1.1,2.4,1.1c0.6,0,1.2-0.2,1.7-0.5c0.5-0.3,0.8-0.8,1-1.3l0.2-0.6c0.1-0.3,0.3-0.5,0.7-0.5
			c0.5,0,0.8,0.3,0.8,0.8c0,0.9-0.5,1.7-1.4,2.4c-0.9,0.7-2,1.1-3.1,1.1c-1.5,0-2.6-0.5-3.5-1.5c-0.9-1-1.3-2.3-1.3-4
			c0-1.7,0.5-3.1,1.4-4.2c0.9-1.1,2.1-1.6,3.6-1.6c1.3,0,2.4,0.4,3.3,1.3C183.7,118.4,184.1,119.6,184.1,120.9z M176.5,120.4
			c0,0.2,0.2,0.3,0.5,0.3h5c0.3,0,0.4-0.1,0.4-0.3c0-0.7-0.3-1.4-0.8-1.9c-0.6-0.5-1.2-0.8-2-0.8c-0.8,0-1.5,0.3-2.1,0.9
			S176.5,119.7,176.5,120.4z"/>
		<path d="M186.1,125l6.8-7h-3.2c-1.1,0-1.7,0-2,0.1c-0.3,0.1-0.4,0.2-0.4,0.5c0,0.1,0,0.2,0,0.4c0.1,0.4,0.1,0.7,0.1,1
			c0,0.5-0.2,0.8-0.7,0.8c-0.5,0-0.7-0.3-0.7-0.9c0-0.3,0-0.4,0-0.5c0.1-0.4,0.1-0.7,0.1-0.9c0-0.1,0-0.3-0.1-0.6
			c0-0.3-0.1-0.5-0.1-0.6c0-0.4,0.3-0.7,1-0.7c0.2,0,0.5,0,0.9,0c0.4,0,0.7,0.1,0.9,0.1h1.3h3.6c0.9,0,1.3,0.3,1.3,1
			c0,0.3-0.3,0.7-0.8,1.2l-6.8,6.9h5c0.8,0,1.2-0.2,1.2-0.7v-0.4c0-0.2,0-0.4,0-0.6c0-0.5,0-0.8,0-0.8c0-0.2,0.1-0.4,0.2-0.6
			c0.1-0.2,0.3-0.2,0.5-0.2c0.4,0,0.7,0.3,0.7,0.8c0,0.2,0,0.5,0,0.7c-0.1,0.5-0.1,0.9-0.1,1.1c0,0.2,0,0.4,0.1,0.7
			c0,0.3,0.1,0.5,0.1,0.7c0,0.5-0.3,0.8-0.9,0.8h-1.3h-6.1c-0.4,0-0.6-0.1-0.9-0.3c-0.2-0.2-0.3-0.5-0.3-0.8
			C185.6,125.6,185.7,125.3,186.1,125z"/>
		<path d="M208.3,112.6c1.6,0,2.8,0.6,3.8,1.8v-0.2c0-0.1,0-0.2,0-0.2c0-0.1,0-0.1,0-0.2c0-0.3,0-0.5,0-0.4c0-0.5,0.2-0.7,0.7-0.7
			c0.5,0,0.7,0.3,0.7,0.9c0,0.1,0,0.4,0,1c-0.1,0.7-0.1,1.2-0.1,1.4c0,0.4,0,0.8,0.1,1.2l0.1,0.8v0.2c0,0.6-0.3,0.9-0.8,0.9
			c-0.5,0-0.8-0.3-0.8-0.9v-0.7c0-1-0.3-1.8-0.9-2.4c-0.7-0.6-1.5-0.9-2.6-0.9c-1.4,0-2.5,0.5-3.2,1.6c-0.8,1.1-1.2,2.5-1.2,4.4
			c0,1.9,0.4,3.4,1.2,4.5c0.8,1.1,1.9,1.6,3.4,1.6c0.8,0,1.5-0.2,2.1-0.6c0.6-0.4,1.1-0.9,1.3-1.5c0.2-0.4,0.3-1,0.3-1.6
			c0-0.6,0.3-1,0.8-1c0.6,0,0.9,0.3,0.9,1c0,1.5-0.5,2.7-1.6,3.7s-2.4,1.4-4,1.4c-1.9,0-3.4-0.7-4.5-2c-1.1-1.3-1.7-3.1-1.7-5.3
			c0-2.3,0.6-4.1,1.7-5.5C204.8,113.3,206.4,112.6,208.3,112.6z"/>
		<path d="M220.2,127.4c-1.5,0-2.6-0.5-3.5-1.5c-0.9-1-1.3-2.4-1.3-4.1s0.4-3.1,1.3-4.1s2.1-1.5,3.6-1.5c1.5,0,2.7,0.5,3.6,1.5
			c0.9,1,1.3,2.3,1.3,4.1s-0.5,3.1-1.4,4.1C222.9,126.9,221.7,127.4,220.2,127.4z M220.3,117.6c-1,0-1.8,0.3-2.3,1s-0.9,1.7-0.9,2.9
			v0.3c0,1.3,0.3,2.3,0.8,3.1c0.6,0.7,1.3,1.1,2.3,1.1c1,0,1.8-0.4,2.4-1.1c0.6-0.7,0.9-1.8,0.9-3.1
			C223.5,119,222.4,117.6,220.3,117.6z"/>
		<path d="M228.9,127.4c-0.4,0-0.7-0.1-0.9-0.4c-0.3-0.3-0.4-0.6-0.4-0.9s0.1-0.7,0.4-0.9c0.3-0.3,0.6-0.4,0.9-0.4
			c0.4,0,0.7,0.1,0.9,0.4c0.3,0.3,0.4,0.6,0.4,0.9s-0.1,0.7-0.4,0.9C229.5,127.3,229.2,127.4,228.9,127.4z"/>
	</g>
</g>
</svg>
